<svg width="24" height="24" viewBox="0 0 24 24" fill="none" xmlns="http://www.w3.org/2000/svg"><path d="M19.67 5.591a.056.056 0 0 0-.029-.026 18.33 18.33 0 0 0-4.488-1.376.068.068 0 0 0-.072.033c-.205.37-.392.748-.559 1.136a16.97 16.97 0 0 0-5.04 0 11.438 11.438 0 0 0-.568-1.136.07.07 0 0 0-.072-.033c-1.55.264-3.06.727-4.489 1.377a.064.064 0 0 0-.03.025C1.466 9.815.684 13.936 1.067 18.005a.074.074 0 0 0 .029.051A18.363 18.363 0 0 0 6.6 20.81a.072.072 0 0 0 .077-.025c.425-.572.802-1.178 1.127-1.812a.068.068 0 0 0-.014-.08.07.07 0 0 0-.025-.016 12.1 12.1 0 0 1-1.72-.811.07.07 0 0 1-.028-.09.07.07 0 0 1 .021-.026 9.39 9.39 0 0 0 .342-.265.069.069 0 0 1 .071-.01c3.609 1.63 7.516 1.63 11.082 0a.07.07 0 0 1 .072.01c.111.09.226.179.342.265a.07.07 0 0 1-.006.116c-.55.317-1.125.588-1.72.81a.07.07 0 0 0-.038.097c.33.63.706 1.235 1.125 1.811a.07.07 0 0 0 .077.026 18.302 18.302 0 0 0 5.515-2.753.07.07 0 0 0 .029-.05c.46-4.705-.77-8.792-3.26-12.415ZM8.343 15.527c-1.086 0-1.981-.986-1.981-2.198s.878-2.198 1.982-2.198c1.112 0 1.998.995 1.981 2.198 0 1.212-.878 2.198-1.981 2.198Zm7.327 0c-1.086 0-1.981-.986-1.981-2.198s.877-2.198 1.981-2.198c1.113 0 2 .995 1.982 2.198 0 1.212-.87 2.198-1.982 2.198Z" fill="#fff"/></svg>
