<svg width="24" height="24" viewBox="0 0 24 24" fill="none" xmlns="http://www.w3.org/2000/svg"><path d="M12.027 2a9.975 9.975 0 0 0-3.153 19.439c.5.09.68-.217.68-.481 0-.237-.009-.865-.012-1.7-2.775.6-3.36-1.338-3.36-1.338a2.635 2.635 0 0 0-1.108-1.459c-.9-.619.07-.605.07-.605.64.088 1.204.467 1.526 1.028a2.123 2.123 0 0 0 2.9.829c.046-.506.272-.979.635-1.334-2.214-.251-4.542-1.107-4.542-4.93A3.865 3.865 0 0 1 6.69 8.778a3.588 3.588 0 0 1 .1-2.64s.837-.269 2.742 1.021a9.44 9.44 0 0 1 4.992 0c1.906-1.291 2.742-1.021 2.742-1.021.37.835.405 1.78.1 2.64a3.84 3.84 0 0 1 1.024 2.675c0 3.833-2.33 4.675-4.552 4.922.48.49.725 1.162.675 1.846 0 1.334-.012 2.41-.012 2.737 0 .267.178.577.687.479A9.976 9.976 0 0 0 12.027 2Z" fill="#fff"/></svg>
