<svg width="24" height="24" viewBox="0 0 24 24" fill="none" xmlns="http://www.w3.org/2000/svg"><g clip-path="url(#a)"><path d="M13.537 12c0 3.727-3.03 6.75-6.769 6.75A6.758 6.758 0 0 1 0 12c0-3.729 3.03-6.75 6.768-6.75a6.759 6.759 0 0 1 6.77 6.75Zm7.425 0c0 3.51-1.514 6.354-3.384 6.354-1.868 0-3.383-2.845-3.383-6.354 0-3.51 1.514-6.354 3.383-6.354 1.87 0 3.384 2.846 3.384 6.354ZM24 12c0 3.144-.532 5.692-1.191 5.692-.657 0-1.19-2.55-1.19-5.692 0-3.144.533-5.692 1.192-5.692C23.468 6.308 24 8.855 24 12Z" fill="#fff"/></g><defs><clipPath id="a"><path fill="#fff" d="M0 0h24v24H0z"/></clipPath></defs></svg>
