<svg xmlns="http://www.w3.org/2000/svg" fill="#fff" viewBox="0 0 1832 347" class="wd:hidden w-[137px] h-[26px] ml-2"><path d="M116.62 275.739c-22.44 0-42.047-3.173-58.82-9.52-16.547-6.347-29.807-15.527-39.78-27.54C8.273 226.666 2.267 212.273 0 195.499l70.04-20.06c1.133 8.614 3.626 15.98 7.48 22.1 4.08 6.12 9.18 10.88 15.3 14.28 6.12 3.174 13.033 4.76 20.74 4.76 10.426 0 18.7-3.173 24.82-9.52 6.346-6.346 9.519-15.073 9.519-26.18V25.499h82.28v159.46c0 18.814-4.646 35.134-13.94 48.96-9.066 13.6-22.1 24.027-39.1 31.28-17 7.027-37.173 10.54-60.519 10.54ZM326.938 274.039c-14.733 0-27.54-2.72-38.42-8.16-10.88-5.44-19.266-13.26-25.16-23.46-5.666-10.426-8.5-22.666-8.5-36.72v-112.2h73.78v96.56c0 10.654 2.947 18.927 8.84 24.82 5.893 5.894 14.167 8.84 24.82 8.84 8.16 0 15.3-1.586 21.42-4.76 6.12-3.4 10.767-8.16 13.94-14.28 3.4-6.346 5.1-13.826 5.1-22.44v-88.74h73.78v175.44h-62.56l-9.86-39.44h-.34c-7.027 13.827-17.227 24.707-30.6 32.64-13.373 7.933-28.787 11.9-46.24 11.9ZM502.617 268.939V93.499h73.439v175.44h-73.439Zm36.719-193.8c-12.013 0-21.873-3.513-29.579-10.54-7.48-7.026-11.22-16.093-11.22-27.2 0-7.253 1.7-13.712 5.1-19.38 3.4-5.666 8.159-10.086 14.279-13.259C524.263 1.587 531.403 0 539.336 0c12.014 0 21.76 3.513 29.24 10.54 7.707 6.8 11.56 15.753 11.56 26.86 0 7.48-1.7 14.053-5.1 19.72-3.4 5.666-8.273 10.086-14.62 13.26-6.12 3.173-13.146 4.76-21.08 4.76ZM716.781 275.059c-24.026 0-45.106-3.853-63.24-11.56-18.133-7.933-32.186-18.927-42.159-32.98-9.974-14.28-14.96-30.713-14.96-49.3 0-18.586 4.76-35.02 14.28-49.299 9.746-14.28 23.233-25.274 40.459-32.98 17.454-7.934 37.627-11.9 60.52-11.9 19.04 0 36.267 2.946 51.68 8.84 15.413 5.666 27.993 13.713 37.74 24.14 9.973 10.426 16.207 22.439 18.7 36.039l-67.32 13.94c-1.813-10.2-6.12-18.02-12.92-23.46-6.8-5.666-15.3-8.499-25.5-8.499-8.613 0-16.32 1.813-23.12 5.439-6.573 3.4-11.673 8.387-15.3 14.96-3.626 6.574-5.44 14.167-5.44 22.78 0 8.614 1.927 16.207 5.78 22.78 4.08 6.347 9.747 11.334 17 14.96 7.254 3.627 15.64 5.44 25.16 5.44 8.387 0 15.98-1.586 22.78-4.76 6.8-3.173 12.353-7.593 16.66-13.26 4.307-5.666 7.027-12.353 8.16-20.06l68 9.52c-2.04 15.64-8.387 29.467-19.04 41.48-10.427 12.013-24.14 21.307-41.14 27.88s-35.926 9.86-56.78 9.86ZM936.564 346.459c-13.147 0-26.407-1.247-39.78-3.74-13.147-2.267-25.386-5.553-36.72-9.86-11.333-4.307-20.966-9.067-28.9-14.28l21.08-51.34c7.027 4.533 14.847 8.613 23.46 12.24 8.84 3.627 18.02 6.46 27.54 8.5s18.587 3.06 27.2 3.06c13.6 0 25.613-2.153 36.04-6.46 10.427-4.08 18.36-9.86 23.8-17.34 5.666-7.707 8.5-16.547 8.5-26.52v-14.62h-.34c-5.214 13.6-14.167 24.367-26.86 32.3-12.693 7.933-27.2 11.9-43.52 11.9-15.64 0-29.24-3.173-40.8-9.52-11.56-6.573-20.513-15.64-26.86-27.2-6.12-11.56-9.18-24.82-9.18-39.78v-100.3h73.78v88.74c0 7.707 1.36 14.507 4.08 20.4 2.72 5.667 6.687 10.087 11.9 13.26 5.213 3.174 11.22 4.76 18.02 4.76 7.933 0 14.847-1.7 20.74-5.1 6.12-3.626 10.766-8.5 13.94-14.62 3.4-6.346 5.1-13.713 5.1-22.1v-85.34h73.776v150.28c0 20.627-5.66 38.647-17 54.06-11.1 15.64-26.97 27.653-47.6 36.04-20.623 8.387-44.423 12.58-71.396 12.58ZM1102.68 268.939V25.499h168.64c19.5 0 36.04 2.608 49.64 7.82 13.83 5.214 24.26 12.807 31.28 22.78 7.26 9.974 10.88 21.987 10.88 36.04 0 8.614-1.7 16.434-5.1 23.461-3.17 7.026-7.82 13.033-13.94 18.02-6.12 4.76-13.6 8.386-22.44 10.879v.68c14.96 3.4 26.52 10.087 34.68 20.06 8.16 9.747 12.24 21.987 12.24 36.72 0 14.054-3.62 26.18-10.88 36.38-7.02 9.973-17.34 17.567-30.94 22.78-13.6 5.213-30.14 7.82-49.64 7.82h-174.42Zm151.3-50.66c6.8 0 12.7-.906 17.68-2.72 4.99-2.04 8.73-4.873 11.22-8.5 2.5-3.853 3.74-8.386 3.74-13.6 0-8.16-2.94-14.506-8.84-19.04-5.66-4.76-13.6-7.14-23.8-7.14h-69.36v51h69.36Zm-3.4-94.519c6.35 0 11.79-.907 16.32-2.72 4.76-2.04 8.28-4.874 10.54-8.5 2.5-3.627 3.74-7.934 3.74-12.92 0-7.48-2.72-13.26-8.16-17.34-5.44-4.08-12.92-6.12-22.44-6.12h-65.96v47.6h65.96ZM1514.57 275.059c-25.84 0-48.73-3.853-68.68-11.56-19.72-7.933-35.13-18.927-46.24-32.98-10.88-14.28-16.32-30.826-16.32-49.64 0-18.36 4.99-34.566 14.96-48.619 9.98-14.28 23.92-25.387 41.82-33.32 17.91-7.934 38.42-11.9 61.54-11.9 22.67 0 42.5 3.853 59.5 11.56 17.23 7.48 30.49 18.02 39.78 31.62 9.3 13.599 13.94 29.466 13.94 47.599 0 3.4-.22 7.027-.68 10.88-.45 3.854-1.13 7.254-2.04 10.2h-151.98c1.82 6.574 5.44 12.127 10.88 16.66 5.67 4.534 12.58 7.934 20.74 10.2 8.16 2.267 17.23 3.4 27.2 3.4 13.15 0 25.96-1.7 38.42-5.1 12.7-3.4 22.67-7.82 29.92-13.26l27.54 34.34c-6.57 5.893-15.07 11.107-25.5 15.64-10.2 4.533-21.76 8.047-34.68 10.54-12.92 2.493-26.29 3.74-40.12 3.74Zm26.18-110.16c-.22-6.573-2.04-12.353-5.44-17.34-3.4-5.213-8.04-9.179-13.94-11.899-5.89-2.947-12.58-4.42-20.06-4.42-7.48 0-14.28 1.473-20.4 4.42-6.12 2.72-11.1 6.686-14.96 11.899-3.85 4.987-6.12 10.767-6.8 17.34h81.6ZM1748.69 275.059c-17.23 0-32.07-2.72-44.54-8.16-12.47-5.667-22.1-13.6-28.9-23.8-6.8-10.426-10.2-22.78-10.2-37.06V142.46h-39.1V93.5h39.1V47.26l73.78-14.62V93.5h85.68v48.96h-85.68v48.959c0 6.574 1.13 12.127 3.4 16.66 2.49 4.307 6.01 7.707 10.54 10.2 4.53 2.267 9.97 3.4 16.32 3.4 9.29 0 17.57-1.7 24.82-5.1 7.48-3.4 15.07-8.613 22.78-15.64l14.62 45.9c-10.88 9.52-23.23 16.66-37.06 21.42-13.6 4.533-28.79 6.8-45.56 6.8Z"></path></svg>