<svg class="w-[30px] h-[30px]" width="530" height="530" viewBox="0 0 530 530" fill="none" xmlns="http://www.w3.org/2000/svg"><rect width="530" height="530" rx="265" fill="#fff"></rect><path d="M223.182 321.516L223.182 64.9384C223.182 44.515 218.533 28.5471 242.989 26.2149C267.479 23.8795 262.67 40.9303 262.67 60.2632L262.67 321.363C262.67 378.496 292.034 428.77 336.494 457.917C372.717 481.664 372.917 483.584 327.384 495.784C276.502 509.418 225.055 505.587 179.406 487.967C132.984 470.047 143.34 467.208 171.926 440.257C203.484 410.505 223.182 368.311 223.182 321.516Z" fill="#4b1682"></path><path d="M127.808 321.516L127.808 129.456C127.808 71.4234 119.966 65.1526 81.6023 111.223C33.5128 168.973 13.2864 248.414 34.2158 326.523C36.0297 333.293 38.1164 339.917 40.4608 346.386C53.6578 382.802 74.0204 402.31 107.162 370.23C119.893 357.906 127.808 340.635 127.808 321.516Z" fill="#4b1682"></path><path d="M425.834 158.198C416.444 158.198 406.999 159.207 397.739 161.099C359.093 168.996 358.044 175.891 358.044 130.391V95.3273C358.044 43.9161 367.462 40.8079 412.152 75.4205C431.948 90.753 449.429 109.241 463.738 130.391C489.204 168.033 480.463 163.583 445.556 159.378C439.091 158.599 432.51 158.198 425.834 158.198Z" fill="#4b1682"></path><path d="M425.834 253.572C388.395 253.572 358.044 283.923 358.044 321.363C358.044 358.802 388.395 389.153 425.834 389.153C463.274 389.153 493.625 358.802 493.625 321.363C493.625 283.923 463.274 253.572 425.834 253.572Z" fill="#4b1682"></path></svg>